<svg xmlns="http://www.w3.org/2000/svg" width="1200" height="540" viewBox="0 0 1200 540" role="img" aria-label="Career as a city: warehouses in 2015, cloud towers by 2019, GenAI crowns in 2022, bridges to customers in 2024, and a central AI spire in 2026">
  <defs>
    <radialGradient id="glow"><stop offset="0" stop-color="#58a6ff" stop-opacity=".9"/><stop offset="1" stop-color="#58a6ff" stop-opacity="0"/></radialGradient>
    <radialGradient id="halo" cx=".65" cy=".45" r=".6"><stop offset="0" stop-color="#58a6ff" stop-opacity=".10"/><stop offset="1" stop-color="#58a6ff" stop-opacity="0"/></radialGradient>
    <pattern id="winL" width="9" height="11" patternUnits="userSpaceOnUse" patternTransform="skewY(30)"><rect x="2" y="2" width="4" height="6" fill="#fff" fill-opacity=".18"/></pattern>
    <pattern id="winR" width="9" height="11" patternUnits="userSpaceOnUse" patternTransform="skewY(-30)"><rect x="2" y="2" width="4" height="6" fill="#000" fill-opacity=".18"/></pattern>
    <pattern id="litL" width="27" height="22" patternUnits="userSpaceOnUse" patternTransform="skewY(30)"><rect x="2" y="2" width="4" height="6" fill="#f2cc60"/><rect x="20" y="13" width="4" height="6" fill="#f2cc60"/></pattern>
  </defs>
  <style>
  .r0, .r1, .r2, .r3, .r4 { transform-box: fill-box; transform-origin: 50% 100%; }
  .cap { opacity: 0; } .c4 { opacity: 1; }
  .twinkle { animation: twinkle 3.2s ease-in-out infinite; }
  .flow { stroke-dasharray: 4 10; animation: flow 1.2s linear infinite; }
  .pulse { transform-box: fill-box; transform-origin: center; animation: pulse 2.6s ease-in-out infinite; }
  .r0 { animation: rise0 20s cubic-bezier(.2,.8,.2,1) infinite; } .s0 { animation: show0 20s ease-out infinite; } .c0 { animation: cap0 20s ease-out infinite; }
  .r1 { animation: rise1 20s cubic-bezier(.2,.8,.2,1) infinite; } .s1 { animation: show1 20s ease-out infinite; } .c1 { animation: cap1 20s ease-out infinite; }
  .r2 { animation: rise2 20s cubic-bezier(.2,.8,.2,1) infinite; } .s2 { animation: show2 20s ease-out infinite; } .c2 { animation: cap2 20s ease-out infinite; }
  .r3 { animation: rise3 20s cubic-bezier(.2,.8,.2,1) infinite; } .s3 { animation: show3 20s ease-out infinite; } .c3 { animation: cap3 20s ease-out infinite; }
  .r4 { animation: rise4 20s cubic-bezier(.2,.8,.2,1) infinite; } .s4 { animation: show4 20s ease-out infinite; } .c4 { animation: cap4 20s ease-out infinite; }
  @keyframes rise0 { 0%, 2.00% { transform: scaleY(0); opacity: 0; } 12.00%, 92.00% { transform: scaleY(1); opacity: 1; } 97.00%, 100% { transform: scaleY(1); opacity: 0; } }
  @keyframes show0 { 0%, 2.00% { opacity: 0; } 12.00%, 92.00% { opacity: 1; } 97.00%, 100% { opacity: 0; } }
  @keyframes cap0 { 0%, 2.00% { opacity: 0; transform: translateY(8px); } 5.00%, 13.00% { opacity: 1; transform: none; } 15.00%, 100% { opacity: 0; } }
  @keyframes rise1 { 0%, 15.00% { transform: scaleY(0); opacity: 0; } 25.00%, 92.00% { transform: scaleY(1); opacity: 1; } 97.00%, 100% { transform: scaleY(1); opacity: 0; } }
  @keyframes show1 { 0%, 15.00% { opacity: 0; } 25.00%, 92.00% { opacity: 1; } 97.00%, 100% { opacity: 0; } }
  @keyframes cap1 { 0%, 15.00% { opacity: 0; transform: translateY(8px); } 18.00%, 26.00% { opacity: 1; transform: none; } 28.00%, 100% { opacity: 0; } }
  @keyframes rise2 { 0%, 28.00% { transform: scaleY(0); opacity: 0; } 38.00%, 92.00% { transform: scaleY(1); opacity: 1; } 97.00%, 100% { transform: scaleY(1); opacity: 0; } }
  @keyframes show2 { 0%, 28.00% { opacity: 0; } 38.00%, 92.00% { opacity: 1; } 97.00%, 100% { opacity: 0; } }
  @keyframes cap2 { 0%, 28.00% { opacity: 0; transform: translateY(8px); } 31.00%, 39.00% { opacity: 1; transform: none; } 41.00%, 100% { opacity: 0; } }
  @keyframes rise3 { 0%, 41.00% { transform: scaleY(0); opacity: 0; } 51.00%, 92.00% { transform: scaleY(1); opacity: 1; } 97.00%, 100% { transform: scaleY(1); opacity: 0; } }
  @keyframes show3 { 0%, 41.00% { opacity: 0; } 51.00%, 92.00% { opacity: 1; } 97.00%, 100% { opacity: 0; } }
  @keyframes cap3 { 0%, 41.00% { opacity: 0; transform: translateY(8px); } 44.00%, 52.00% { opacity: 1; transform: none; } 54.00%, 100% { opacity: 0; } }
  @keyframes rise4 { 0%, 54.00% { transform: scaleY(0); opacity: 0; } 64.00%, 92.00% { transform: scaleY(1); opacity: 1; } 97.00%, 100% { transform: scaleY(1); opacity: 0; } }
  @keyframes show4 { 0%, 54.00% { opacity: 0; } 64.00%, 92.00% { opacity: 1; } 97.00%, 100% { opacity: 0; } }
  @keyframes cap4 { 0%, 54.00% { opacity: 0; transform: translateY(8px); } 57.00%, 92.00% { opacity: 1; transform: none; } 97.00%, 100% { opacity: 0; } }
  @keyframes twinkle { 0%, 100% { opacity: .95; } 50% { opacity: .25; } }
  @keyframes flow { to { stroke-dashoffset: -28; } }
  @keyframes pulse { 0%, 100% { transform: scale(.8); opacity: .55; } 50% { transform: scale(1.15); opacity: 1; } }
  @media (prefers-reduced-motion: reduce) {
    .r0, .r1, .r2, .r3, .r4, .s0, .s1, .s2, .s3, .s4, .c4, .twinkle, .flow, .pulse { animation: none; }
    .c0, .c1, .c2, .c3 { animation: none; opacity: 0; }
    .packet { display: none; }
  }
</style>
  <rect x=".5" y=".5" width="1199" height="539" rx="12" fill="#0d1117" stroke="#1f2630"/>
  <rect width="1200" height="540" rx="12" fill="url(#halo)"/>
  <g font-family="ui-sans-serif, -apple-system, 'Segoe UI', Helvetica, Arial, sans-serif">
    <text x="56" y="64" font-size="13" font-weight="600" letter-spacing="2" fill="#8b949e">THE JOURNEY, BUILT ONE DISTRICT AT A TIME</text>
    <g class="cap c0">
    <text x="56" y="150" font-size="13" font-weight="700" letter-spacing="2" fill="#58a6ff">CHAPTER 1 · 2015</text>
    <text x="54" y="194" font-size="36" font-weight="700" letter-spacing="-1" fill="#e6edf3">Data foundations</text>
    <text x="56" y="232" font-size="16" font-weight="600" fill="#e6edf3">ETL Developer, InnoMinds</text>
    <text x="56" y="256" font-size="15" fill="#8b949e">Data Engineer, DSO MCS Group</text>
    <text x="56" y="280" font-size="15" fill="#8b949e">Warehouses, pipelines, the first roads.</text>
  </g><g class="cap c1">
    <text x="56" y="150" font-size="13" font-weight="700" letter-spacing="2" fill="#58a6ff">CHAPTER 2 · 2019</text>
    <text x="54" y="194" font-size="36" font-weight="700" letter-spacing="-1" fill="#e6edf3">Cloud at scale</text>
    <text x="56" y="232" font-size="16" font-weight="600" fill="#e6edf3">Senior Data Engineer, Charles Schwab</text>
    <text x="56" y="256" font-size="15" fill="#8b949e">Multi-PB to GCP · 1B+ records a day</text>
    <text x="56" y="280" font-size="15" fill="#8b949e">$1M+ saved, zero data loss.</text>
  </g><g class="cap c2">
    <text x="56" y="150" font-size="13" font-weight="700" letter-spacing="2" fill="#58a6ff">CHAPTER 3 · 2022</text>
    <text x="54" y="194" font-size="36" font-weight="700" letter-spacing="-1" fill="#e6edf3">GenAI accelerators</text>
    <text x="56" y="232" font-size="16" font-weight="600" fill="#e6edf3">Lead Data Engineer, HCA Healthcare</text>
    <text x="56" y="256" font-size="15" fill="#8b949e">100+ TB HIPAA migration to GCP</text>
    <text x="56" y="280" font-size="15" fill="#8b949e">Delivery timelines cut 50%.</text>
  </g><g class="cap c3">
    <text x="56" y="150" font-size="13" font-weight="700" letter-spacing="2" fill="#58a6ff">CHAPTER 4 · 2024</text>
    <text x="54" y="194" font-size="36" font-weight="700" letter-spacing="-1" fill="#e6edf3">Forward deployed</text>
    <text x="56" y="232" font-size="16" font-weight="600" fill="#e6edf3">NRG Energy · Definity</text>
    <text x="56" y="256" font-size="15" fill="#8b949e">AWS to GCP Databricks, near-zero downtime</text>
    <text x="56" y="280" font-size="15" fill="#8b949e">COBOL to BigQuery via GenAI, 12 workstreams.</text>
  </g><g class="cap c4">
    <text x="56" y="150" font-size="13" font-weight="700" letter-spacing="2" fill="#58a6ff">CHAPTER 5 · 2026</text>
    <text x="54" y="194" font-size="36" font-weight="700" letter-spacing="-1" fill="#e6edf3">Applied GenAI</text>
    <text x="56" y="232" font-size="16" font-weight="600" fill="#e6edf3">Forward Deployed AI Architect, Wiley</text>
    <text x="56" y="256" font-size="15" fill="#8b949e">RAG over 50M+ documents · 95% grounded</text>
    <text x="56" y="280" font-size="15" fill="#8b949e">Every district now feeds the AI core.</text>
  </g>
    <g><rect x="56" y="330" width="56" height="4" rx="2" fill="#1f2630"/><rect class="s0" x="56" y="330" width="56" height="4" rx="2" fill="#58a6ff"/><text x="56" y="354" font-size="11" font-weight="600" fill="#8b949e" letter-spacing="1">2015</text></g><g><rect x="120" y="330" width="56" height="4" rx="2" fill="#1f2630"/><rect class="s1" x="120" y="330" width="56" height="4" rx="2" fill="#58a6ff"/><text x="120" y="354" font-size="11" font-weight="600" fill="#8b949e" letter-spacing="1">2019</text></g><g><rect x="184" y="330" width="56" height="4" rx="2" fill="#1f2630"/><rect class="s2" x="184" y="330" width="56" height="4" rx="2" fill="#58a6ff"/><text x="184" y="354" font-size="11" font-weight="600" fill="#8b949e" letter-spacing="1">2022</text></g><g><rect x="248" y="330" width="56" height="4" rx="2" fill="#1f2630"/><rect class="s3" x="248" y="330" width="56" height="4" rx="2" fill="#58a6ff"/><text x="248" y="354" font-size="11" font-weight="600" fill="#8b949e" letter-spacing="1">2024</text></g><g><rect x="312" y="330" width="56" height="4" rx="2" fill="#1f2630"/><rect class="s4" x="312" y="330" width="56" height="4" rx="2" fill="#58a6ff"/><text x="312" y="354" font-size="11" font-weight="600" fill="#8b949e" letter-spacing="1">2026</text></g>
  </g>
  <polygon points="790.0,150.6 1064.3,309.0 790.0,467.4 515.7,309.0" fill="#11161d" stroke="#1f2630"/>
  <line x1="686.1" y1="225.0" x2="935.5" y2="369.0" stroke="#1f2630" stroke-width="7" stroke-linecap="round"/><line x1="893.9" y1="225.0" x2="644.5" y2="369.0" stroke="#1f2630" stroke-width="7" stroke-linecap="round"/><line x1="648.7" y1="246.6" x2="898.1" y2="390.6" stroke="#1f2630" stroke-width="7" stroke-linecap="round"/><line x1="931.3" y1="246.6" x2="681.9" y2="390.6" stroke="#1f2630" stroke-width="7" stroke-linecap="round"/>
  <g class="s0"><circle class="packet" r="2.6" fill="#58a6ff"><animateMotion dur="4.0s" begin="0.0s" repeatCount="indefinite" path="M686.1 225.0 L935.5 369.0"/></circle></g><g class="s0"><circle class="packet" r="2.6" fill="#58a6ff"><animateMotion dur="4.0s" begin="1.4s" repeatCount="indefinite" path="M686.1 225.0 L935.5 369.0"/></circle></g><g class="s0"><circle class="packet" r="2.6" fill="#58a6ff"><animateMotion dur="4.0s" begin="2.8s" repeatCount="indefinite" path="M686.1 225.0 L935.5 369.0"/></circle></g><g class="s0"><circle class="packet" r="2.6" fill="#58a6ff"><animateMotion dur="4.7s" begin="0.3s" repeatCount="indefinite" path="M893.9 225.0 L644.5 369.0"/></circle></g><g class="s0"><circle class="packet" r="2.6" fill="#58a6ff"><animateMotion dur="4.7s" begin="1.7s" repeatCount="indefinite" path="M893.9 225.0 L644.5 369.0"/></circle></g><g class="s0"><circle class="packet" r="2.6" fill="#58a6ff"><animateMotion dur="4.7s" begin="3.1s" repeatCount="indefinite" path="M893.9 225.0 L644.5 369.0"/></circle></g><g class="s1"><circle class="packet" r="2.6" fill="#58a6ff"><animateMotion dur="5.4s" begin="0.6s" repeatCount="indefinite" path="M648.7 246.6 L898.1 390.6"/></circle></g><g class="s1"><circle class="packet" r="2.6" fill="#58a6ff"><animateMotion dur="5.4s" begin="2.0s" repeatCount="indefinite" path="M648.7 246.6 L898.1 390.6"/></circle></g><g class="s1"><circle class="packet" r="2.6" fill="#58a6ff"><animateMotion dur="5.4s" begin="3.4s" repeatCount="indefinite" path="M648.7 246.6 L898.1 390.6"/></circle></g><g class="s1"><circle class="packet" r="2.6" fill="#58a6ff"><animateMotion dur="6.1s" begin="0.9s" repeatCount="indefinite" path="M931.3 246.6 L681.9 390.6"/></circle></g><g class="s1"><circle class="packet" r="2.6" fill="#58a6ff"><animateMotion dur="6.1s" begin="2.3s" repeatCount="indefinite" path="M931.3 246.6 L681.9 390.6"/></circle></g><g class="s1"><circle class="packet" r="2.6" fill="#58a6ff"><animateMotion dur="6.1s" begin="3.7s" repeatCount="indefinite" path="M931.3 246.6 L681.9 390.6"/></circle></g>
  <g class="r2" style="animation-delay:0.00s"><polygon points="765.1,208.2 785.8,220.2 785.8,109.8 765.1,97.8" fill="#6a44c4"/><polygon points="806.6,208.2 785.8,220.2 785.8,109.8 806.6,97.8" fill="#4f3197"/><polygon points="785.8,85.8 806.6,97.8 785.8,109.8 765.1,97.8" fill="#8d62e9"/><polygon points="768.2,201.6 782.7,210.0 782.7,115.2 768.2,106.8" fill="url(#winL)"/><polygon points="803.5,201.6 789.0,210.0 789.0,115.2 803.5,106.8" fill="url(#winR)"/><polygon class="twinkle" style="animation-delay:2.6s" points="768.2,201.6 782.7,210.0 782.7,115.2 768.2,106.8" fill="url(#litL)"/><circle class="pulse" style="animation-delay:2.4s" cx="785.8" cy="97.8" r="9" fill="url(#glow)"/></g><g class="r3" style="animation-delay:0.12s"><polygon points="694.4,225.0 715.2,237.0 715.2,184.2 694.4,172.2" fill="#207a74"/><polygon points="744.3,220.2 715.2,237.0 715.2,184.2 744.3,167.4" fill="#175a56"/><polygon points="723.5,155.4 744.3,167.4 715.2,184.2 694.4,172.2" fill="#2ea099"/><polygon points="697.5,218.4 712.1,226.8 712.1,189.6 697.5,181.2" fill="url(#winL)"/><polygon points="741.2,213.6 718.3,226.8 718.3,189.6 741.2,176.4" fill="url(#winR)"/><polygon class="twinkle" style="animation-delay:0.1s" points="697.5,218.4 712.1,226.8 712.1,189.6 697.5,181.2" fill="url(#litL)"/></g><g class="r2" style="animation-delay:0.12s"><polygon points="819.1,229.8 852.4,249.0 852.4,177.0 819.1,157.8" fill="#6a44c4"/><polygon points="873.1,237.0 852.4,249.0 852.4,177.0 873.1,165.0" fill="#4f3197"/><polygon points="839.9,145.8 873.1,165.0 852.4,177.0 819.1,157.8" fill="#8d62e9"/><polygon points="822.2,223.2 849.2,238.8 849.2,182.4 822.2,166.8" fill="url(#winL)"/><polygon points="870.0,230.4 855.5,238.8 855.5,182.4 870.0,174.0" fill="url(#winR)"/><polygon class="twinkle" style="animation-delay:0.3s" points="822.2,223.2 849.2,238.8 849.2,182.4 822.2,166.8" fill="url(#litL)"/><circle class="pulse" style="animation-delay:2.7s" cx="846.1" cy="161.4" r="9" fill="url(#glow)"/></g><g class="r0" style="animation-delay:0.24s"><polygon points="648.7,261.0 681.9,280.2 681.9,256.2 648.7,237.0" fill="#2a3038"/><polygon points="715.2,261.0 681.9,280.2 681.9,256.2 715.2,237.0" fill="#1c2128"/><polygon points="681.9,217.8 715.2,237.0 681.9,256.2 648.7,237.0" fill="#3d444d"/></g><g class="r2" style="animation-delay:0.24s"><polygon points="914.7,280.2 935.5,292.2 935.5,157.8 914.7,145.8" fill="#6a44c4"/><polygon points="956.3,280.2 935.5,292.2 935.5,157.8 956.3,145.8" fill="#4f3197"/><polygon points="935.5,133.8 956.3,145.8 935.5,157.8 914.7,145.8" fill="#8d62e9"/><polygon points="917.8,273.6 932.4,282.0 932.4,163.2 917.8,154.8" fill="url(#winL)"/><polygon points="953.2,273.6 938.6,282.0 938.6,163.2 953.2,154.8" fill="url(#winR)"/><polygon class="twinkle" style="animation-delay:1.0s" points="917.8,273.6 932.4,282.0 932.4,163.2 917.8,154.8" fill="url(#litL)"/><circle class="pulse" style="animation-delay:3.0s" cx="935.5" cy="145.8" r="9" fill="url(#glow)"/></g><g class="r3" style="animation-delay:0.24s"><polygon points="831.6,289.8 852.4,301.8 852.4,220.2 831.6,208.2" fill="#207a74"/><polygon points="873.1,289.8 852.4,301.8 852.4,220.2 873.1,208.2" fill="#175a56"/><polygon points="852.4,196.2 873.1,208.2 852.4,220.2 831.6,208.2" fill="#2ea099"/><polygon points="834.7,283.2 849.2,291.6 849.2,225.6 834.7,217.2" fill="url(#winL)"/><polygon points="870.0,283.2 855.5,291.6 855.5,225.6 870.0,217.2" fill="url(#winR)"/><polygon class="twinkle" style="animation-delay:0.8s" points="834.7,283.2 849.2,291.6 849.2,225.6 834.7,217.2" fill="url(#litL)"/></g><g class="r0" style="animation-delay:0.00s"><polygon points="582.2,297.0 623.7,321.0 623.7,292.2 582.2,268.2" fill="#2a3038"/><polygon points="665.3,297.0 623.7,321.0 623.7,292.2 665.3,268.2" fill="#1c2128"/><polygon points="623.7,244.2 665.3,268.2 623.7,292.2 582.2,268.2" fill="#3d444d"/></g><g class="r4"><polygon points="773.4,297.0 790.0,306.6 790.0,42.6 773.4,33.0" fill="#4b9cf0"/><polygon points="806.6,297.0 790.0,306.6 790.0,42.6 806.6,33.0" fill="#2f7ad6"/><polygon points="790.0,23.4 806.6,33.0 790.0,42.6 773.4,33.0" fill="#79c0ff"/><polygon points="776.5,290.4 786.9,296.4 786.9,48.0 776.5,42.0" fill="url(#winL)"/><polygon points="803.5,290.4 793.1,296.4 793.1,48.0 803.5,42.0" fill="url(#winR)"/><polygon class="twinkle" style="animation-delay:0.4s" points="776.5,290.4 786.9,296.4 786.9,48.0 776.5,42.0" fill="url(#litL)"/></g><g class="s4"><circle class="pulse" cx="790.0" cy="33.0" r="22" fill="url(#glow)"/><circle cx="790.0" cy="33.0" r="4" fill="#0d1117" stroke="#58a6ff" stroke-width="2"/></g><g class="r0" style="animation-delay:0.36s"><polygon points="686.1,306.6 711.0,321.0 711.0,282.6 686.1,268.2" fill="#2a3038"/><polygon points="736.0,306.6 711.0,321.0 711.0,282.6 736.0,268.2" fill="#1c2128"/><polygon points="711.0,253.8 736.0,268.2 711.0,282.6 686.1,268.2" fill="#3d444d"/></g><g class="r2" style="animation-delay:0.36s"><polygon points="931.3,323.4 952.1,335.4 952.1,239.4 931.3,227.4" fill="#6a44c4"/><polygon points="972.9,323.4 952.1,335.4 952.1,239.4 972.9,227.4" fill="#4f3197"/><polygon points="952.1,215.4 972.9,227.4 952.1,239.4 931.3,227.4" fill="#8d62e9"/><polygon points="934.4,316.8 949.0,325.2 949.0,244.8 934.4,236.4" fill="url(#winL)"/><polygon points="969.8,316.8 955.2,325.2 955.2,244.8 969.8,236.4" fill="url(#winR)"/><polygon class="twinkle" style="animation-delay:1.7s" points="934.4,316.8 949.0,325.2 949.0,244.8 934.4,236.4" fill="url(#litL)"/><circle class="pulse" style="animation-delay:3.3s" cx="952.1" cy="227.4" r="9" fill="url(#glow)"/></g><g class="r0" style="animation-delay:0.12s"><polygon points="636.2,330.6 677.8,354.6 677.8,335.4 636.2,311.4" fill="#2a3038"/><polygon points="702.7,340.2 677.8,354.6 677.8,335.4 702.7,321.0" fill="#1c2128"/><polygon points="661.1,297.0 702.7,321.0 677.8,335.4 636.2,311.4" fill="#3d444d"/></g><g class="r1" style="animation-delay:0.00s"><polygon points="756.7,347.4 777.5,359.4 777.5,258.6 756.7,246.6" fill="#1f5fc4"/><polygon points="798.3,347.4 777.5,359.4 777.5,258.6 798.3,246.6" fill="#16469a"/><polygon points="777.5,234.6 798.3,246.6 777.5,258.6 756.7,246.6" fill="#2f81f7"/><polygon points="759.9,340.8 774.4,349.2 774.4,264.0 759.9,255.6" fill="url(#winL)"/><polygon points="795.2,340.8 780.6,349.2 780.6,264.0 795.2,255.6" fill="url(#winR)"/><polygon class="twinkle" style="animation-delay:2.8s" points="759.9,340.8 774.4,349.2 774.4,264.0 759.9,255.6" fill="url(#litL)"/></g><g class="r1" style="animation-delay:0.36s"><polygon points="856.5,361.8 877.3,373.8 877.3,229.8 856.5,217.8" fill="#1f5fc4"/><polygon points="898.1,361.8 877.3,373.8 877.3,229.8 898.1,217.8" fill="#16469a"/><polygon points="877.3,205.8 898.1,217.8 877.3,229.8 856.5,217.8" fill="#2f81f7"/><polygon points="859.6,355.2 874.2,363.6 874.2,235.2 859.6,226.8" fill="url(#winL)"/><polygon points="895.0,355.2 880.4,363.6 880.4,235.2 895.0,226.8" fill="url(#winR)"/><polygon class="twinkle" style="animation-delay:1.9s" points="859.6,355.2 874.2,363.6 874.2,235.2 859.6,226.8" fill="url(#litL)"/></g><g class="r1" style="animation-delay:0.24s"><polygon points="702.7,373.8 740.1,395.4 740.1,318.6 702.7,297.0" fill="#1f5fc4"/><polygon points="760.9,383.4 740.1,395.4 740.1,318.6 760.9,306.6" fill="#16469a"/><polygon points="723.5,285.0 760.9,306.6 740.1,318.6 702.7,297.0" fill="#2f81f7"/><polygon points="705.8,367.2 737.0,385.2 737.0,324.0 705.8,306.0" fill="url(#winL)"/><polygon points="757.8,376.8 743.2,385.2 743.2,324.0 757.8,315.6" fill="url(#winR)"/><polygon class="twinkle" style="animation-delay:1.2s" points="705.8,367.2 737.0,385.2 737.0,324.0 705.8,306.0" fill="url(#litL)"/></g><g class="r1" style="animation-delay:0.12s"><polygon points="765.1,385.8 785.8,397.8 785.8,273.0 765.1,261.0" fill="#1f5fc4"/><polygon points="819.1,378.6 785.8,397.8 785.8,273.0 819.1,253.8" fill="#16469a"/><polygon points="798.3,241.8 819.1,253.8 785.8,273.0 765.1,261.0" fill="#2f81f7"/><polygon points="768.2,379.2 782.7,387.6 782.7,278.4 768.2,270.0" fill="url(#winL)"/><polygon points="816.0,372.0 789.0,387.6 789.0,278.4 816.0,262.8" fill="url(#winR)"/><polygon class="twinkle" style="animation-delay:0.5s" points="768.2,379.2 782.7,387.6 782.7,278.4 768.2,270.0" fill="url(#litL)"/></g><g class="r3" style="animation-delay:0.00s"><polygon points="781.7,424.2 802.5,436.2 802.5,369.0 781.7,357.0" fill="#207a74"/><polygon points="823.3,424.2 802.5,436.2 802.5,369.0 823.3,357.0" fill="#175a56"/><polygon points="802.5,345.0 823.3,357.0 802.5,369.0 781.7,357.0" fill="#2ea099"/><polygon points="784.8,417.6 799.4,426.0 799.4,374.4 784.8,366.0" fill="url(#winL)"/><polygon points="820.1,417.6 805.6,426.0 805.6,374.4 820.1,366.0" fill="url(#winR)"/><polygon class="twinkle" style="animation-delay:2.4s" points="784.8,417.6 799.4,426.0 799.4,374.4 784.8,366.0" fill="url(#litL)"/></g>
  <g class="s3"><path d="M644.5 277.8 Q711.0 204.6 777.5 234.6" fill="none" stroke="#2ea099" stroke-width="2" class="flow"/><path d="M846.1 161.4 Q890.8 103.8 935.5 133.8" fill="none" stroke="#2ea099" stroke-width="2" class="flow"/><path d="M719.3 169.8 Q752.6 67.8 785.8 97.8" fill="none" stroke="#2ea099" stroke-width="2" class="flow"/><path d="M802.5 357.0 Q797.3 227.4 792.1 257.4" fill="none" stroke="#2ea099" stroke-width="2" class="flow"/></g>
  <g class="s4"><path d="M777.5 246.6 Q783.8 -7.0 790.0 33.0" fill="none" stroke="#58a6ff" stroke-width="1.6" stroke-opacity=".8" class="flow" style="animation-delay:0.60s"/><path d="M792.1 257.4 Q791.0 -7.0 790.0 33.0" fill="none" stroke="#58a6ff" stroke-width="1.6" stroke-opacity=".8" class="flow" style="animation-delay:0.75s"/><path d="M731.8 301.8 Q760.9 -7.0 790.0 33.0" fill="none" stroke="#58a6ff" stroke-width="1.6" stroke-opacity=".8" class="flow" style="animation-delay:0.90s"/><path d="M877.3 217.8 Q833.6 -7.0 790.0 33.0" fill="none" stroke="#58a6ff" stroke-width="1.6" stroke-opacity=".8" class="flow" style="animation-delay:1.05s"/><path d="M785.8 97.8 Q787.9 -7.0 790.0 33.0" fill="none" stroke="#58a6ff" stroke-width="1.6" stroke-opacity=".8" class="flow" style="animation-delay:1.20s"/><path d="M846.1 161.4 Q818.1 -7.0 790.0 33.0" fill="none" stroke="#58a6ff" stroke-width="1.6" stroke-opacity=".8" class="flow" style="animation-delay:1.35s"/><path d="M935.5 145.8 Q862.7 -7.0 790.0 33.0" fill="none" stroke="#58a6ff" stroke-width="1.6" stroke-opacity=".8" class="flow" style="animation-delay:1.50s"/><path d="M952.1 227.4 Q871.1 -7.0 790.0 33.0" fill="none" stroke="#58a6ff" stroke-width="1.6" stroke-opacity=".8" class="flow" style="animation-delay:1.65s"/></g>
</svg>
